<svg xmlns="http://www.w3.org/2000/svg" viewBox="0 0 150 89.286">
  <defs>
    <style>
      .cls-1 {
        fill: #08398a;
      }

      .cls-2 {
        fill: #020c1c;
      }

      .cls-3, .cls-4 {
        fill: none;
        stroke: #05388a;
        stroke-width: 4px;
      }

      .cls-3 {
        stroke-miterlimit: 5;
      }

      .cls-5 {
        fill: #05388a;
      }
    </style>
  </defs>
  <g id="_3.0logo_kopie" data-name="3.0logo kopie" transform="translate(-3.7 -0.6)">
    <g id="Group_18" data-name="Group 18" transform="translate(4.267 66.586)">
      <path id="Path_21" data-name="Path 21" class="cls-1" d="M15.3,133.1a1.19,1.19,0,1,1,0,2.381H4.7V117H15.244a1.19,1.19,0,1,1,0,2.381H7.081v5.669H10.6a1.19,1.19,0,0,1,0,2.381H7.081V133.1H15.3Z" transform="translate(-4.7 -117)"/>
      <path id="Path_22" data-name="Path 22" class="cls-1" d="M39.482,133.406l-3.515-4.138a1.683,1.683,0,0,1-.567-1.077A1.187,1.187,0,0,1,36.534,127c.68,0,1.134.737,1.531,1.19l2.891,3.571,2.891-3.571c.4-.51.85-1.19,1.531-1.19a1.187,1.187,0,0,1,1.134,1.19,1.683,1.683,0,0,1-.567,1.077l-3.515,4.138,3.515,4.138a1.683,1.683,0,0,1,.567,1.077,1.187,1.187,0,0,1-1.134,1.19c-.68,0-1.134-.68-1.531-1.19l-2.891-3.571-2.891,3.571c-.4.51-.85,1.19-1.531,1.19a1.187,1.187,0,0,1-1.134-1.19,1.683,1.683,0,0,1,.567-1.077Z" transform="translate(-17.996 -121.331)"/>
      <path id="Path_23" data-name="Path 23" class="cls-1" d="M76.911,134.88c0,1.644-.113,2.268-1.474,3.288l-1.361,1.077a3.444,3.444,0,0,1-1.814,1.02H70.732c-1.02,0-1.474-.68-2.211-1.361l-.454-.454v4.592c0,.794-.17,1.587-1.134,1.587s-1.134-.794-1.134-1.587V128.7c0-.794.113-1.7,1.134-1.7.907,0,1.134.737,1.134,1.474v.283l.454-.4C69.088,127.85,70,127,70.675,127h1.474a4.273,4.273,0,0,1,1.927,1.02l1.361,1.077a3.311,3.311,0,0,1,1.474,3.288ZM74.587,132.1a1.231,1.231,0,0,0-.454-1.02l-1.7-1.417a1.332,1.332,0,0,0-.794-.4h-.567c-.34,0-.737.454-.964.68l-1.417,1.361a1.555,1.555,0,0,0-.624,1.19v2.211a1.43,1.43,0,0,0,.34.964l1.757,1.644c.34.34.68.624.964.624H71.7a1.512,1.512,0,0,0,.794-.4l1.7-1.417a1.165,1.165,0,0,0,.454-1.02v-3Z" transform="translate(-31.163 -121.331)"/>
      <path id="Path_24" data-name="Path 24" class="cls-1" d="M100,139.812a2.415,2.415,0,0,1-2.041-.624l-.964-.85a2.8,2.8,0,0,1-1.19-2.551v-4.422a2.975,2.975,0,0,1,1.134-2.721l.794-.68a3.133,3.133,0,0,1,2.494-.964h2.1a3.082,3.082,0,0,1,2.494.85l.907.737a3.283,3.283,0,0,1,1.19,2.948v1.814c0,1.3-.227,1.7-1.587,1.7h-7.2v.737a1.119,1.119,0,0,0,.34.68l.567.624c.283.34.737.454,1.531.454h4.875c.737,0,1.587.17,1.587,1.134,0,1.02-.907,1.134-1.587,1.134Zm-1.871-7.029h6.633v-1.361a1.358,1.358,0,0,0-.283-1.077l-.907-.737a1.487,1.487,0,0,0-1.077-.283h-1.927a1.782,1.782,0,0,0-1.19.283l-.794.567a1.045,1.045,0,0,0-.454,1.02v1.587Z" transform="translate(-44.156 -121.331)"/>
      <path id="Path_25" data-name="Path 25" class="cls-1" d="M126.057,128.7c0-.85.113-1.7,1.134-1.7.907,0,1.134.737,1.134,1.531v.907l1.757-1.474a3.422,3.422,0,0,1,2.041-.964h1.814a2.827,2.827,0,0,1,2.211.907,3.377,3.377,0,0,1,1.02,2.608c0,.794-.17,1.587-1.134,1.587-.85,0-1.19-.68-1.19-1.417a1.6,1.6,0,0,0-.227-1.02c-.283-.4-.85-.4-1.361-.4h-.68a1.681,1.681,0,0,0-1.134.567l-3.175,2.664v5.782c0,.794-.17,1.587-1.134,1.587S126,139.075,126,138.281V128.7Z" transform="translate(-57.236 -121.331)"/>
      <path id="Path_26" data-name="Path 26" class="cls-1" d="M160.849,132.515c0,1.3-.057,2.041,1.531,2.041h1.19c.907,0,1.361-.057,1.587-1.02a1.147,1.147,0,0,1,1.134-.907,1.187,1.187,0,0,1,1.19,1.134,3.436,3.436,0,0,1-.794,1.927,3.656,3.656,0,0,1-3.118,1.19h-1.247a3.8,3.8,0,0,1-2.948-1.134c-.907-.964-.85-1.927-.85-3.175v-6.293h-.737c-.68,0-1.587-.17-1.587-1.134s.794-1.134,1.587-1.134h.737v-2.324c0-.794.17-1.587,1.134-1.587s1.134.794,1.134,1.587v2.324h3.855c.737,0,1.587.17,1.587,1.134,0,1.02-.907,1.134-1.587,1.134h-3.855v6.236Z" transform="translate(-70.316 -118.343)"/>
      <path id="Path_27" data-name="Path 27" class="cls-1" d="M194.069,133.213h1.7c.737,0,1.587.17,1.587,1.134,0,1.02-.907,1.134-1.587,1.134h-5.782c-.68,0-1.587-.17-1.587-1.134s.794-1.134,1.587-1.134H191.8v-8.277h-1.814c-.68,0-1.587-.17-1.587-1.134s.794-1.134,1.587-1.134h2.381c1.3,0,1.7.227,1.7,1.587Zm-3.458-15.136A.958.958,0,0,1,191.688,117h1.3a.958.958,0,0,1,1.077,1.077v1.077a.958.958,0,0,1-1.077,1.077h-1.3a.958.958,0,0,1-1.077-1.077Z" transform="translate(-84.262 -117)"/>
      <path id="Path_28" data-name="Path 28" class="cls-1" d="M220.655,129.311c-.454,0-1.3-.113-1.3.624,0,.4.283.51.624.68l5.726,2.608a3.232,3.232,0,0,1,2.211,3.231c0,2.324-1.587,3.4-3.742,3.4h-3.515a3.977,3.977,0,0,1-2.834-.737c-.454-.34-1.02-.737-1.02-1.3a1.187,1.187,0,0,1,1.19-1.134,1.208,1.208,0,0,1,.907.4,2.4,2.4,0,0,0,1.814.51h3.118c.794,0,1.927.057,1.927-1.247,0-.567-.68-.907-1.19-1.134l-5.385-2.438a2.808,2.808,0,0,1-1.984-2.778,2.89,2.89,0,0,1,3.118-2.891h3.912a3.355,3.355,0,0,1,2.664.794c.454.34.907.624.907,1.3a1.149,1.149,0,0,1-1.19,1.134,1.211,1.211,0,0,1-.964-.454,1.731,1.731,0,0,0-1.417-.454h-3.571Z" transform="translate(-96.562 -121.374)"/>
      <path id="Path_29" data-name="Path 29" class="cls-1" d="M251.1,139.812a2.415,2.415,0,0,1-2.041-.624l-.964-.85a2.8,2.8,0,0,1-1.19-2.551v-4.422a2.975,2.975,0,0,1,1.134-2.721l.794-.68a3.133,3.133,0,0,1,2.494-.964h2.1a3.082,3.082,0,0,1,2.494.85l.907.737a3.283,3.283,0,0,1,1.19,2.948v1.814c0,1.3-.227,1.7-1.587,1.7h-7.313v.737a1.119,1.119,0,0,0,.34.68l.567.624c.283.34.737.454,1.531.454h4.875c.737,0,1.587.17,1.587,1.134,0,1.02-.907,1.134-1.587,1.134Zm-1.927-7.029H255.8v-1.361a1.358,1.358,0,0,0-.283-1.077l-.907-.737a1.487,1.487,0,0,0-1.077-.283h-1.927a1.782,1.782,0,0,0-1.19.283l-.794.567a1.045,1.045,0,0,0-.454,1.02Z" transform="translate(-109.598 -121.331)"/>
    </g>
    <path id="Path_30" data-name="Path 30" class="cls-2" d="M3.7,1.113V17.837H53.133V30.478H31.875v5.272H53.133V47.429H3.927V64.152l66.383.057L70.367,1Z" transform="translate(0 -0.173)"/>
    <path id="Path_31" data-name="Path 31" class="cls-3" d="M240.1,18.9c20.465,22.336,0,42.8,0,42.8" transform="translate(-102.386 -7.926)"/>
    <path id="Path_32" data-name="Path 32" class="cls-4" d="M233.1,31.2c11.961,14.966,0,27.948,0,27.948" transform="translate(-99.355 -13.253)"/>
    <path id="Path_33" data-name="Path 33" class="cls-2" d="M148.3.6V64.035h68.027V.6Zm34.467,44.161a12.415,12.415,0,1,1,12.415-12.415A12.411,12.411,0,0,1,182.767,44.761Z" transform="translate(-62.627)"/>
    <path id="Path_34" data-name="Path 34" class="cls-5" d="M169.141,62.688c-10.941-11.961-10.317-23.413-7.937-30.9A36.955,36.955,0,0,1,169.141,18.3l1.587,1.587A34.719,34.719,0,0,0,163.3,32.529c-3.231,10.034-.737,19.671,7.483,28.571Z" transform="translate(-67.595 -7.666)"/>
    <path id="Path_35" data-name="Path 35" class="cls-5" d="M178.876,60.289c-12.415-15.816-.057-29.875.057-29.989l1.7,1.531c-.454.51-11.168,12.755.057,27.1Z" transform="translate(-73.476 -12.863)"/>
    <rect id="Rectangle_26" data-name="Rectangle 26" class="cls-2" width="13.039" height="12.642" transform="translate(71.614 51.394)"/>
    <path id="Path_36" data-name="Path 36" class="cls-5" d="M240.444,63.231,238.8,61.7c8.163-8.9,10.658-18.537,7.483-28.571a34.72,34.72,0,0,0-7.426-12.642l1.587-1.587a36.349,36.349,0,0,1,7.936,13.492C250.761,39.875,251.385,51.326,240.444,63.231Z" transform="translate(-101.823 -7.926)"/>
    <path id="Path_37" data-name="Path 37" class="cls-5" d="M233.457,60.745,231.7,59.328c4.705-6.009,6.179-12.415,4.308-18.991a22.3,22.3,0,0,0-4.252-8.107l1.7-1.531C233.514,30.87,245.872,44.929,233.457,60.745Z" transform="translate(-98.748 -13.037)"/>
  </g>
</svg>
