<svg xmlns="http://www.w3.org/2000/svg" xmlns:xlink="http://www.w3.org/1999/xlink" viewBox="0 0 398.37 461.779">
  <defs>
    <style>
      .cls-1 {
        fill: #2074ff;
      }

      .cls-2 {
        clip-path: url(#clip-path);
      }

      .cls-3 {
        opacity: 0.139;
      }

      .cls-4 {
        fill: #010002;
      }
    </style>
    <clipPath id="clip-path">
      <path id="Path_128" data-name="Path 128" class="cls-1" d="M0,0H398.37V461.779H0Z" transform="translate(920.63 1169)"/>
    </clipPath>
  </defs>
  <g id="Mask_Group_2" data-name="Mask Group 2" class="cls-2" transform="translate(-920.63 -1169)">
    <g id="wifi" class="cls-3" transform="translate(1425.311 1245.387) rotate(135)">
      <g id="Group_28" data-name="Group 28" transform="translate(-122.387 -199.279)">
        <g id="Group_22" data-name="Group 22" transform="translate(0)">
          <path id="Path_123" data-name="Path 123" class="cls-4" d="M122.288,238.443V0h-82.1V643h82.1V390.526a76.462,76.462,0,0,0,0-152.083Z" transform="translate(-40.191)"/>
        </g>
        <g id="Group_27" data-name="Group 27" transform="translate(185.39 16.627)">
          <g id="Group_23" data-name="Group 23" transform="translate(0 221.67)">
            <path id="Path_124" data-name="Path 124" class="cls-4" d="M193.816,161.751l-6.271,3.414a98.449,98.449,0,0,1-13.235,6.09l-8.279,3.062,4.5,7.633a122.883,122.883,0,0,1,17.443,62.987,123.571,123.571,0,0,1-15.866,60.493l-2.642,4.684,4.615,4.933c.544.579,1.1,1.157,1.645,1.791,1.384,1.645,2.711,3.312,4.208,5.217,1.191,1.486,2.359,2.961,3.549,4.378l6.521,7.985,5.42-8.766a153.877,153.877,0,0,0,22.954-80.713,152.874,152.874,0,0,0-20.959-77.016Z" transform="translate(-166.03 -161.751)"/>
          </g>
          <g id="Group_24" data-name="Group 24" transform="translate(61.57 154.78)">
            <path id="Path_125" data-name="Path 125" class="cls-4" d="M243.06,124.638l-5.92-8.29-6,8.244q-4.866,6.668-9.924,13.087l-3.346,4.253,3.074,4.445a210.976,210.976,0,0,1,37.63,120.044,211.951,211.951,0,0,1-47.236,133.925l-3.516,4.4,6.3,8.438c1.5,1.7,3.085,3.323,4.717,4.967,1.123,1.123,2.2,2.2,3.312,3.436l5.738,6.09,5.307-6.464c36.5-44.445,55.8-97.963,55.8-154.781C288.99,215.615,273.1,166.588,243.06,124.638Z" transform="translate(-207.823 -116.347)"/>
          </g>
          <g id="Group_25" data-name="Group 25" transform="translate(129.876 70.223)">
            <path id="Path_126" data-name="Path 126" class="cls-4" d="M278.163,65.847l-6.124-6.9L266.7,66.426c-3.129,4.367-6.249,8.9-9.367,13.564l-3.142,4.626L257.9,88.9a311.557,311.557,0,0,1,76.948,204.669c0,73.909-26.832,145.947-75.587,202.765l-4.73,5.5,5.433,4.843c2.609,2.3,5.274,4.548,7.893,6.736l9.754,8.335,4.785-5.579a342.418,342.418,0,0,0,82.823-222.6A341.833,341.833,0,0,0,278.163,65.847Z" transform="translate(-254.188 -58.952)"/>
          </g>
          <g id="Group_26" data-name="Group 26" transform="translate(193.942)">
            <path id="Path_127" data-name="Path 127" class="cls-4" d="M325.153,16.5l-4.843-5.217-5.4,4.661c-2.665,2.348-5.263,4.73-7.848,7.122l-9.39,8.642,5,5.433a408.941,408.941,0,0,1,109.8,278.987,410.7,410.7,0,0,1-97.9,265.73L309.73,587.6l5.84,4.763c3.221,2.6,6.408,5.307,9.595,8.063l7.826,6.725,4.809-5.6A441.147,441.147,0,0,0,442.919,316.13,439.467,439.467,0,0,0,325.153,16.5Z" transform="translate(-297.674 -11.286)"/>
          </g>
        </g>
      </g>
    </g>
  </g>
</svg>
